# xmcd
#
# Track frame offsets:
#	150
#	16825
#	32825
#	50527
#	67637
#	78322
#	93640
#	107472
#	114570
#	132532
#	146982
#
# Disc length: 2213 seconds
#
# Revision: 0
# Processed by: cddbd v1.5PL3 Copyright (c) Steve Scherf et al.
# Submitted via: dBpowerAMP V4.0
#
DISCID=9008a30b
DTITLE=Radio-Canada AM - Ca m'chante
DYEAR=1900
DGENRE=
TTITLE0=DES INSTRUMENTS MAJESTUEUX
TTITLE1=JE VOYAGE DANS LE TEMPS
TTITLE2=PETITE FLEUR
TTITLE3=LE MOINEAU
TTITLE4=LUTINS DU SOLEIL
TTITLE5=AU-DELA DES FRONTIERES
TTITLE6=MES <<ORTEILLES>>
TTITLE7=PAS LE TEMPS
TTITLE8=SEULEMENT SEULE
TTITLE9=LAISSEZ-MOI CHANTER
TTITLE10=ENTRE DEUX ILES
EXTD=
EXTT0=
EXTT1=
EXTT2=
EXTT3=
EXTT4=
EXTT5=
EXTT6=
EXTT7=
EXTT8=
EXTT9=
EXTT10=
PLAYORDER=
